# File created by Blade
# Date/Time:  Wed Jan 21 15:55:51 2015
# Frame Rate: 120.000 fps
#------------------------------------------------------
:FULLY-SPECIFIED
:DEGREES
229
root 25.760315 29.998420 -14.536234 -164.069139 8.511190 -191.156353
Spine 42.930320 0.887614 -8.969568
Head 3.860107 -1.157606 -3.086444
LeftShoulder 10.238861 -31.533386 -6.964714
LeftArm 18.223122 27.255255 -71.231292
LeftForeArm -0.556561 -0.000000 17.270493
LeftHand -4.074825 -0.000000 6.219253
LeftHandThumb1 -26.253704 0.000000 33.147579
RightShoulder 9.429812 -1.979052 -2.121736
RightArm 41.364244 -3.550326 56.657617
RightForeArm -19.838302 -0.000000 21.616188
RightHand -3.093890 -0.000000 -7.512339
RightHandThumb1 -24.326973 -0.000000 -32.862282
LeftUpLeg -25.565064 24.812009 15.168579
LeftLeg 12.822309 -0.000000 -0.000000
LeftFoot 2.428284 36.629950 -5.406659
LeftToeBase 10.534583 -0.000000 -0.000000
RightUpLeg -60.749777 -13.356173 -1.952410
RightLeg 70.528730 -0.000000 -0.000000
RightFoot -48.529424 -24.692714 21.417836
RightToeBase 22.102480 -0.000000 -0.000000
230
root 25.828869 29.761687 -14.523656 -163.975175 8.527971 -191.248074
Spine 43.336542 0.540231 -8.873795
Head 3.440046 -0.929421 -3.492945
LeftShoulder 10.406007 -31.842824 -7.225820
LeftArm 18.365858 26.883366 -71.040949
LeftForeArm -1.212740 -0.000000 17.076301
LeftHand -4.014575 -0.000000 6.569880
LeftHandThumb1 -26.253704 0.000000 33.147579
RightShoulder 9.860837 -1.738032 -2.338844
RightArm 41.616914 -3.523309 55.865339
RightForeArm -19.351877 -0.000000 21.405715
RightHand -3.019432 -0.000000 -7.614418
RightHandThumb1 -24.326973 -0.000000 -32.862282
LeftUpLeg -25.033263 25.309190 15.684725
LeftLeg 11.600172 -0.000000 -0.000000
LeftFoot 4.638740 37.334726 -3.729433
LeftToeBase 9.763020 -0.000000 -0.000000
RightUpLeg -61.572640 -13.091684 -1.942027
RightLeg 71.859871 -0.000000 -0.000000
RightFoot -49.271847 -24.808726 21.676798
RightToeBase 22.098191 -0.000000 -0.000000
231
root 25.889234 29.526199 -14.510313 -163.871235 8.560248 -191.353088
Spine 43.728090 0.170143 -8.819230
Head 3.037565 -0.665198 -3.900445
LeftShoulder 10.553609 -31.944433 -7.462596
LeftArm 18.734075 26.465342 -70.693272
LeftForeArm -1.924500 0.000000 16.853483
LeftHand -3.964873 -0.000000 6.975249
LeftHandThumb1 -26.253704 0.000000 33.147579
RightShoulder 10.314685 -1.520233 -2.554981
RightArm 41.961552 -3.407976 55.154066
RightForeArm -19.202632 -0.000000 21.066651
RightHand -3.112346 0.000000 -7.759576
RightHandThumb1 -24.326973 -0.000000 -32.862282
LeftUpLeg -24.491355 25.821844 16.144346
LeftLeg 10.331756 -0.000000 -0.000000
LeftFoot 6.876074 37.769312 -2.072152
LeftToeBase 9.354187 -0.000000 -0.000000
RightUpLeg -62.407030 -12.780383 -1.973058
RightLeg 73.181569 -0.000000 -0.000000
RightFoot -50.006122 -24.922725 22.010806
RightToeBase 22.078483 -0.000000 -0.000000
232
root 25.948970 29.290097 -14.498525 -163.803002 8.635056 -191.403448
Spine 44.194014 -0.123232 -8.749144
Head 2.566328 -0.450809 -4.220224
LeftShoulder 10.744868 -32.297826 -7.694020
LeftArm 18.896160 26.190133 -70.526891
LeftForeArm -3.377333 0.000000 16.584924
LeftHand -3.886734 -0.000000 7.846867
LeftHandThumb1 -26.253704 0.000000 33.147579
RightShoulder 10.749041 -1.294472 -2.733604
RightArm 42.342491 -3.434676 54.234022
RightForeArm -18.821032 -0.000000 20.734899
RightHand -3.107433 -0.000000 -7.844676
RightHandThumb1 -24.326973 -0.000000 -32.862282
LeftUpLeg -23.976399 26.575161 16.577159
LeftLeg 9.193108 -0.000000 -0.000000
LeftFoot 8.808157 37.712995 -0.816680
LeftToeBase 9.574394 -0.000000 -0.000000
RightUpLeg -63.189385 -12.488911 -1.929361
RightLeg 74.453423 -0.000000 -0.000000
RightFoot -50.709402 -25.049118 22.249484
RightToeBase 21.972197 -0.000000 -0.000000
233
root 26.007346 29.054533 -14.485657 -163.715281 8.780732 -191.487805
Spine 44.631311 -0.321990 -8.781610
Head 2.089781 -0.178630 -4.438270
LeftShoulder 10.913428 -32.531037 -7.857280
LeftArm 19.228908 25.757576 -70.328199
LeftForeArm -4.156649 -0.000000 16.184698
LeftHand -3.893595 0.000000 9.236410
LeftHandThumb1 -26.253704 0.000000 33.147579
RightShoulder 11.199186 -0.936299 -2.845634
RightArm 42.614389 -3.513696 53.369011
RightForeArm -18.693884 -0.000000 20.386523
RightHand -3.048342 -0.000000 -7.921625
RightHandThumb1 -24.326973 -0.000000 -32.862282
LeftUpLeg -23.540458 27.491987 16.875928
LeftLeg 8.127277 -0.000000 -0.000000
LeftFoot 10.462038 37.531565 -0.043464
LeftToeBase 9.841338 -0.000000 -0.000000
RightUpLeg -63.992567 -12.038461 -1.980148
RightLeg 75.713761 -0.000000 -0.000000
RightFoot -51.410683 -25.229053 22.556815
RightToeBase 21.826145 -0.000000 -0.000000
234
root 26.052541 28.823235 -14.460796 -163.530054 8.897250 -191.600168
Spine 44.986720 -0.565562 -8.821908
Head 1.611678 0.035584 -4.633089
LeftShoulder 11.106824 -32.885445 -7.996237
LeftArm 19.407315 25.140964 -70.307144
LeftForeArm -4.566783 -0.000000 15.801886
LeftHand -4.002917 -0.000000 9.845738
LeftHandThumb1 -26.253704 0.000000 33.147579
RightShoulder 11.574148 -0.693588 -2.986375
RightArm 43.055584 -3.505927 52.524720
RightForeArm -18.687372 -0.000000 19.987894
RightHand -2.907816 0.000000 -7.822091
RightHandThumb1 -24.326973 -0.000000 -32.862282
LeftUpLeg -23.223370 28.136447 17.145541
LeftLeg 7.104747 -0.000000 -0.000000
LeftFoot 12.005902 37.363471 0.510244
LeftToeBase 10.542488 -0.000000 -0.000000
RightUpLeg -64.909637 -11.710762 -2.010051
RightLeg 76.920277 -0.000000 -0.000000
RightFoot -52.027358 -25.439465 22.722748
RightToeBase 21.959994 -0.000000 -0.000000
235
root 26.088827 28.592285 -14.434016 -163.327943 9.008137 -191.767668
Spine 45.327088 -0.779172 -8.898193
Head 1.114867 0.161104 -4.775211
LeftShoulder 11.196738 -32.737900 -8.058286
LeftArm 20.358849 24.813423 -69.787435
LeftForeArm -5.434079 -0.000000 15.285755
LeftHand -4.016426 0.000000 10.205667
LeftHandThumb1 -26.253704 0.000000 33.147579
RightShoulder 11.892260 -0.492070 -3.138448
RightArm 43.514775 -3.532332 51.636572
RightForeArm -18.696150 -0.000000 19.684070
RightHand -2.953528 0.000000 -7.797055
RightHandThumb1 -24.326973 -0.000000 -32.862282
LeftUpLeg -22.993782 28.667248 17.328612
LeftLeg 6.190475 -0.000000 -0.000000
LeftFoot 13.448441 37.118976 0.965140
LeftToeBase 11.098131 -0.000000 -0.000000
RightUpLeg -65.890146 -11.372758 -2.110517
RightLeg 78.170299 -0.000000 -0.000000
RightFoot -52.611593 -25.639893 23.016355
RightToeBase 22.071168 -0.000000 -0.000000
236
root 26.121364 28.364177 -14.405145 -163.133149 9.076070 -191.919956
Spine 45.765148 -1.041690 -9.002260
Head 0.424503 0.323476 -4.827728
LeftShoulder 11.353542 -33.117399 -8.076934
LeftArm 20.687884 24.401510 -69.716252
LeftForeArm -6.232718 0.000000 14.840186
LeftHand -4.034481 -0.000000 10.658396
LeftHandThumb1 -26.253704 0.000000 33.147579
RightShoulder 12.208834 -0.029114 -3.261427
RightArm 43.796527 -3.549530 50.943533
RightForeArm -18.842194 -0.000000 19.484608
RightHand -3.066868 -0.000000 -7.349598
RightHandThumb1 -24.326973 -0.000000 -32.862282
LeftUpLeg -22.871145 29.117543 17.499660
LeftLeg 5.466466 -0.000000 -0.000000
LeftFoot 14.738490 36.714845 1.292784
LeftToeBase 11.870030 -0.000000 -0.000000
RightUpLeg -66.836198 -11.081212 -2.179416
RightLeg 79.360571 -0.000000 -0.000000
RightFoot -53.180308 -25.865816 23.297843
RightToeBase 21.943899 -0.000000 -0.000000
